<?xml version="1.0" ?>
<!-- Uploaded to: SVG Repo, www.svgrepo.com, Generator: SVG Repo Mixer Tools -->
<svg width="800px" height="800px" viewBox="0 0 24 24" version="1.1" xml:space="preserve" xmlns="http://www.w3.org/2000/svg" xmlns:xlink="http://www.w3.org/1999/xlink">
<style type="text/css">
	.st0{opacity:0.2;fill:none;stroke:#000000;stroke-width:5.000000e-02;stroke-miterlimit:10;}
</style>
<g id="Layer_Grid"/>
<g id="Layer_2">
<path d="M19,17.4c-0.4,0-0.6-0.1-0.9-0.3c-0.4-0.2-0.9-0.6-1.9-0.6s-1.5,0.3-1.9,0.6c-0.3,0.2-0.5,0.3-0.9,0.3   c-0.4,0-0.6-0.1-0.9-0.3c-0.4-0.2-0.9-0.6-1.9-0.6s-1.5,0.3-1.9,0.6c-0.3,0.2-0.5,0.3-0.9,0.3c-0.4,0-0.6-0.1-0.9-0.3   C6.5,16.9,6,16.6,5,16.6c-0.6,0-1,0.4-1,1s0.4,1,1,1c0.4,0,0.6,0.1,0.9,0.3c0.4,0.2,0.9,0.6,1.9,0.6s1.5-0.3,1.9-0.6   c0.3-0.2,0.5-0.3,0.9-0.3c0.4,0,0.6,0.1,0.9,0.3c0.4,0.2,0.9,0.6,1.9,0.6c1,0,1.5-0.3,1.9-0.6c0.3-0.2,0.5-0.3,0.9-0.3   c0.4,0,0.6,0.1,0.9,0.3c0.4,0.2,0.9,0.6,1.9,0.6c0.6,0,1-0.4,1-1S19.6,17.4,19,17.4z"/>
<path d="M19,20.4c-0.4,0-0.6-0.1-0.9-0.3c-0.4-0.2-0.9-0.6-1.9-0.6s-1.5,0.3-1.9,0.6c-0.3,0.2-0.5,0.3-0.9,0.3   c-0.4,0-0.6-0.1-0.9-0.3c-0.4-0.2-0.9-0.6-1.9-0.6s-1.5,0.3-1.9,0.6c-0.3,0.2-0.5,0.3-0.9,0.3c-0.4,0-0.6-0.1-0.9-0.3   C6.5,19.9,6,19.6,5,19.6c-0.6,0-1,0.4-1,1s0.4,1,1,1c0.4,0,0.6,0.1,0.9,0.3c0.4,0.2,0.9,0.6,1.9,0.6s1.5-0.3,1.9-0.6   c0.3-0.2,0.5-0.3,0.9-0.3c0.4,0,0.6,0.1,0.9,0.3c0.4,0.2,0.9,0.6,1.9,0.6c1,0,1.5-0.3,1.9-0.6c0.3-0.2,0.5-0.3,0.9-0.3   c0.4,0,0.6,0.1,0.9,0.3c0.4,0.2,0.9,0.6,1.9,0.6c0.6,0,1-0.4,1-1S19.6,20.4,19,20.4z"/>
<path d="M17,2c-1.7,0-3,1.3-3,3v3H9V5c0-0.6,0.4-1,1-1s1,0.4,1,1v1c0,0.6,0.4,1,1,1s1-0.4,1-1V5c0-1.7-1.3-3-3-3S7,3.3,7,5v10   c0,0.6,0.4,1,1,1s1-0.4,1-1v-1h5v1c0,0.6,0.4,1,1,1s1-0.4,1-1V5c0-0.6,0.4-1,1-1s1,0.4,1,1v1c0,0.6,0.4,1,1,1s1-0.4,1-1V5   C20,3.3,18.7,2,17,2z M14,12H9v-2h5V12z"/>
</g>
</svg>