<?xml version="1.0" encoding="iso-8859-1"?>
<!-- Uploaded to: SVG Repo, www.svgrepo.com, Generator: SVG Repo Mixer Tools -->
<svg fill="#000000" height="800px" width="800px" version="1.1" id="Layer_1" xmlns="http://www.w3.org/2000/svg" xmlns:xlink="http://www.w3.org/1999/xlink" 
	 viewBox="0 0 480 480" xml:space="preserve">
<g>
	<g>
		<path d="M437.333,165.333c-7.467,0-14.827,2.133-21.333,5.973v-5.973C416,129.92,398.08,112,362.667,112H117.333
			C81.92,112,64,129.92,64,165.333v5.973c-6.507-3.84-13.867-5.867-21.333-5.973C19.093,165.333,0,184.427,0,208v85.333
			C0,316.907,19.093,336,42.667,336H64v21.333C64,363.2,68.8,368,74.667,368c5.867,0,10.667-4.8,10.667-10.667V336h309.333v21.333
			c0,5.867,4.8,10.667,10.667,10.667C411.2,368,416,363.2,416,357.333V336h21.227C460.8,336,480,316.907,480,293.333V208
			C480,184.427,460.907,165.333,437.333,165.333z M85.333,165.333c0-23.573,8.32-32,32-32h245.333c23.573,0,32,8.427,32,32V240
			H85.333V165.333z M458.667,293.333c0,11.84-9.707,21.333-21.44,21.333H42.667c-11.733,0-21.333-9.6-21.333-21.333V208
			c0-11.733,9.6-21.333,21.333-21.333S64,196.267,64,208v53.333h352V208c0-11.733,9.6-21.333,21.333-21.333
			s21.333,9.6,21.333,21.333V293.333z"/>
	</g>
</g>
</svg>