<?xml version="1.0" encoding="iso-8859-1"?>
<!-- Uploaded to: SVG Repo, www.svgrepo.com, Generator: SVG Repo Mixer Tools -->
<svg fill="#000000" height="800px" width="800px" version="1.1" id="Layer_1" xmlns="http://www.w3.org/2000/svg" xmlns:xlink="http://www.w3.org/1999/xlink" 
	 viewBox="0 0 512 512" xml:space="preserve">
<g>
	<g>
		<path d="M76.76,99.763v66.072c0,6.912-3.052,13.121-7.874,17.363V99.763H38.381v83.436c-4.823-4.242-7.875-10.451-7.875-17.364
			V99.763H0v66.072c0,24.275,16.216,44.823,38.381,51.41v17.364c-12.364,5.768-20.957,18.31-20.957,32.829v117.963
			c0,19.966,16.244,36.21,36.21,36.21c19.966,0,36.21-16.244,36.21-36.21V267.438c0-14.518-8.593-27.061-20.957-32.829v-17.364
			c22.164-6.589,38.38-27.136,38.38-51.411V99.763H76.76z M59.337,385.402c0,3.145-2.559,5.704-5.704,5.704
			c-3.146,0-5.704-2.559-5.704-5.704V267.438c0-3.145,2.559-5.704,5.704-5.704s5.704,2.559,5.704,5.704V385.402z"/>
	</g>
</g>
<g>
	<g>
		<path d="M512,135.904c0-19.928-16.212-36.14-36.14-36.14s-36.14,16.212-36.14,36.14v90.215c0,7.779,2.478,14.985,6.676,20.888
			c-4.198,5.903-6.676,13.109-6.676,20.888V385.47c0,19.928,16.212,36.14,36.14,36.14S512,405.398,512,385.47V267.895
			c0-7.779-2.478-14.985-6.676-20.888c4.198-5.903,6.676-13.109,6.676-20.888V135.904z M481.495,385.47
			c0,3.107-2.528,5.635-5.635,5.635c-3.107,0-5.635-2.528-5.635-5.635V267.895c0-3.107,2.528-5.635,5.635-5.635
			c3.107,0,5.635,2.528,5.635,5.635V385.47z M481.495,226.119c0,3.107-2.528,5.635-5.635,5.635c-3.107,0-5.635-2.528-5.635-5.635
			v-90.215c0-3.107,2.528-5.635,5.635-5.635c3.107,0,5.635,2.528,5.635,5.635V226.119z"/>
	</g>
</g>
<g>
	<g>
		<path d="M264.712,90.39c-89.697,0-162.673,72.974-162.673,162.672s72.974,162.672,162.673,162.672s162.672-72.974,162.672-162.672
			S354.409,90.39,264.712,90.39z M264.712,385.228c-72.877,0-132.167-59.29-132.167-132.167s59.29-132.167,132.167-132.167
			c72.877,0,132.167,59.29,132.167,132.167S337.589,385.228,264.712,385.228z"/>
	</g>
</g>
<g>
	<g>
		<path d="M264.712,141.232c-61.664,0-111.831,50.167-111.831,111.83s50.167,111.83,111.831,111.83
			c61.663,0,111.83-50.167,111.83-111.83S326.375,141.232,264.712,141.232z M264.712,334.386c-44.843,0-81.326-36.482-81.326-81.325
			s36.482-81.325,81.326-81.325s81.325,36.482,81.325,81.325S309.555,334.386,264.712,334.386z"/>
	</g>
</g>
</svg>