<?xml version="1.0" encoding="utf-8"?>

<!DOCTYPE svg PUBLIC "-//W3C//DTD SVG 1.1//EN" "http://www.w3.org/Graphics/SVG/1.1/DTD/svg11.dtd">
<!-- Uploaded to: SVG Repo, www.svgrepo.com, Generator: SVG Repo Mixer Tools -->
<svg height="800px" width="800px" version="1.1" id="_x32_" xmlns="http://www.w3.org/2000/svg" xmlns:xlink="http://www.w3.org/1999/xlink" 
	 viewBox="0 0 512 512"  xml:space="preserve">
<style type="text/css">
	.st0{fill:#000000;}
</style>
<g>
	<path class="st0" d="M134.873,216.298h38.542c0-62.228,47.321-96.521,47.321-96.521
		C172.408,125.42,134.873,166.445,134.873,216.298z"/>
	<path class="st0" d="M370.511,377.752l-4.305-3.011c-6.539-4.573-10.825-11.771-11.752-19.728l-4.1-35.319
		c0.006-0.517,0.019-1.021,0.019-1.618c-0.006-2.222-0.087-4.859-0.703-7.802c-0.641-2.906-1.792-6.402-4.872-9.562
		c-4.622-4.666-10.918-7.292-17.482-7.292l-0.43,0.006l-9.379,0.174v0.734c-0.342,0.075-0.653,0.112-1.002,0.206
		c-2.271,0.622-4.716,1.668-7.03,3.248c-2.321,1.58-4.48,3.664-6.346,6.172l-0.385,0.522l-15.097,27.344
		c-2.644,4.424-5.135,6.781-7.313,8.106c-2.203,1.32-4.265,1.83-7.022,1.855c-2.787,0.012-6.258-0.697-10.144-2.004l-104.711-45.404
		l-0.374-0.124c-2.46-0.84-4.999-1.244-7.5-1.244c-7.366,0-14.487,3.503-18.964,9.731l-0.031,0.037l-0.164,0.236l0.009,0.006
		c-2.908,4.069-4.342,8.841-4.339,13.52c-0.009,6.788,3.011,13.556,8.673,18.135l-0.013,0.013l121.78,100.452l0.983,0.491
		l63.78,31.692l-3.546,6.595L387.619,512l54.805-101.822l-68.872-38.076L370.511,377.752z M331.365,450.488l-63.366-31.493
		l-120.131-99.097l-0.068-0.05c-1.058-0.846-1.581-2.04-1.593-3.31c0.006-0.872,0.245-1.68,0.79-2.445l0.028-0.038l0.118-0.168
		c0.812-1.133,2.103-1.761,3.44-1.767l1.22,0.199l104.633,45.368l0.36,0.124c5.18,1.754,10.661,3.08,16.515,3.086
		c5.591,0.025,11.575-1.338,16.951-4.635c5.4-3.278,10.016-8.256,13.848-14.726l0.081-0.144l14.54-26.329
		c0.598-0.747,1.102-1.207,1.493-1.474c0.684-0.448,1.207-0.641,2.295-0.816c1.07-0.167,2.604-0.167,4.701-0.186l0.342-0.006
		c1.245,0.062,2.402,0.548,3.336,1.362c0.068,0.243,0.142,0.579,0.193,1.02c0.118,0.834,0.168,1.942,0.168,3.111
		c0,0.604-0.012,1.226-0.031,1.866l-0.012,0.672l4.249,36.607c1.562,13.383,8.754,25.471,19.803,33.192l0.318,0.217l5.804,4.069
		L331.365,450.488z M406.713,425.378c0.025,5.717-4.58,10.371-10.302,10.396c-5.712,0.031-10.378-4.585-10.402-10.303
		c-0.025-5.718,4.598-10.371,10.308-10.402C402.041,415.044,406.689,419.66,406.713,425.378z"/>
	<path class="st0" d="M256,49.903c13.781,0,24.955-11.174,24.955-24.948C280.955,11.174,269.781,0,256,0
		c-13.78,0-24.954,11.174-24.954,24.954C231.045,38.729,242.22,49.903,256,49.903z"/>
	<path class="st0" d="M447.128,238.906h-6.004l-0.155-2.389C434.785,139.262,353.538,63.074,256,63.068
		c-97.528,0.006-178.778,76.194-184.965,173.449l-0.152,2.389h-6.007c-14.402,0-26.121,11.716-26.121,26.118
		c0,14.404,11.719,26.118,26.121,26.118h382.253c14.403,0,26.118-11.715,26.118-26.118
		C473.246,250.622,461.531,238.906,447.128,238.906z M91.338,238.265l0.212-2.749c3.033-39.109,19.999-75.946,47.775-103.738
		C170.501,100.621,211.939,83.456,256,83.45c44.062,0.006,85.5,17.171,116.682,48.328c27.773,27.798,44.739,64.635,47.768,103.738
		l0.212,2.749H91.338z"/>
</g>
</svg>