<?xml version="1.0" encoding="iso-8859-1"?>
<!-- Uploaded to: SVG Repo, www.svgrepo.com, Generator: SVG Repo Mixer Tools -->
<!DOCTYPE svg PUBLIC "-//W3C//DTD SVG 1.1//EN" "http://www.w3.org/Graphics/SVG/1.1/DTD/svg11.dtd">
<svg fill="#000000" height="800px" width="800px" version="1.1" id="Capa_1" xmlns="http://www.w3.org/2000/svg" xmlns:xlink="http://www.w3.org/1999/xlink" 
	 viewBox="0 0 299.236 299.236" xml:space="preserve">
<g>
	<path d="M193.084,271.732c2.428-3.522,4.753-7.362,6.962-11.512c-1.542,0.11-3.091,0.184-4.652,0.184
		c-5.905,0-11.684-0.811-17.224-2.345c-8.743,13.617-18.769,21.177-28.551,21.178c-0.001,0-0.002,0-0.003,0
		c-12.723-0.001-25.861-12.777-36.046-35.051c-3.345-7.314-6.236-15.367-8.676-23.971c10.399,1.545,21.199,2.551,32.242,2.989
		c-2.953-6.368-4.843-13.208-5.571-20.301c-10.889-0.664-21.453-1.914-31.505-3.728c-2.802-15.527-4.282-32.268-4.282-49.556
		s1.48-34.029,4.282-49.556c15.528-2.802,32.271-4.283,49.56-4.283c17.288,0,34.027,1.48,49.554,4.282
		c1.866,10.34,3.132,21.226,3.779,32.446c7.105,0.829,13.949,2.815,20.303,5.882c-0.408-11.48-1.438-22.702-3.041-33.494
		c8.604,2.439,16.656,5.332,23.97,8.676c22.275,10.185,35.051,23.324,35.051,36.047c0,10.006-7.905,20.267-22.115,29.148
		c1.989,7.077,2.74,14.427,2.261,21.714c4.469-2.338,8.594-4.807,12.349-7.396c-4.877,13.66-11.985,26.267-20.882,37.384
		l14.219,14.218c21.338-25.866,34.169-58.997,34.169-95.069C299.236,67.118,232.119,0,149.621,0c-0.001,0-0.001,0-0.001,0h-0.002
		h-0.003C67.116,0.004,0,67.12,0,149.618s67.116,149.615,149.615,149.618h0.003h0.001c0,0,0.001,0,0.002,0
		c35.646,0,68.414-12.538,94.144-33.426l-14.232-14.232C218.644,260.131,206.364,266.99,193.084,271.732z M271.73,106.15
		c-5.612-3.869-12.029-7.477-19.229-10.768c-10.897-4.983-23.192-9.068-36.44-12.208c-3.14-13.248-7.225-25.542-12.208-36.44
		c-3.292-7.2-6.9-13.617-10.77-19.23C229.645,40.558,258.677,69.588,271.73,106.15z M149.616,20c0.001,0,0.002,0,0.003,0
		c12.722,0,25.859,12.776,36.046,35.052c3.344,7.313,6.236,15.366,8.676,23.969c-14.287-2.123-29.326-3.242-44.72-3.242
		c-15.396,0-30.437,1.12-44.726,3.243c2.439-8.604,5.331-16.657,8.676-23.971C123.755,32.777,136.894,20.001,149.616,20z
		 M106.149,27.507c-3.869,5.612-7.477,12.029-10.768,19.228c-4.982,10.898-9.068,23.192-12.207,36.441
		C69.927,86.315,57.633,90.4,46.735,95.382c-7.199,3.292-13.617,6.899-19.229,10.769C40.56,69.591,69.589,40.562,106.149,27.507z
		 M55.052,113.571c7.313-3.344,15.365-6.235,23.969-8.675c-2.123,14.287-3.242,29.327-3.242,44.722
		c0,15.395,1.119,30.434,3.242,44.722c-8.604-2.439-16.655-5.332-23.969-8.675C32.776,175.479,20,162.341,20,149.618
		C20,136.895,32.776,123.756,55.052,113.571z M27.506,193.085c5.612,3.869,12.03,7.477,19.23,10.769
		c10.897,4.982,23.191,9.067,36.438,12.207c3.14,13.248,7.226,25.543,12.208,36.441c3.291,7.199,6.898,13.616,10.768,19.228
		C69.589,258.675,40.56,229.645,27.506,193.085z"/>
	<path d="M239.083,230.723c17.262-21.835,15.831-53.712-4.32-73.864c-10.516-10.516-24.497-16.307-39.369-16.307
		c-14.871,0-28.852,5.792-39.367,16.307c-10.517,10.516-16.309,24.497-16.309,39.369s5.792,28.853,16.308,39.369
		c10.516,10.516,24.497,16.307,39.368,16.307c12.682,0,24.708-4.225,34.498-11.985l46.21,46.21c1.27,1.269,2.934,1.904,4.597,1.904
		c1.663,0,3.327-0.635,4.597-1.904c2.538-2.539,2.538-6.654,0-9.192L239.083,230.723z M225.577,226.398
		c-0.002,0.002-0.005,0.004-0.007,0.006c-0.002,0.002-0.004,0.004-0.006,0.007c-8.061,8.056-18.774,12.493-30.171,12.493
		c-11.398,0-22.115-4.439-30.176-12.5c-8.061-8.06-12.5-18.778-12.5-30.177c0-11.399,4.439-22.116,12.501-30.176
		c8.06-8.061,18.776-12.499,30.175-12.499c11.399,0,22.116,4.439,30.177,12.499C242.207,182.688,242.209,209.757,225.577,226.398z"
		/>
	<path d="M207.596,181.525l-7.359-14.908c-0.722-1.463-2.212-2.39-3.843-2.39s-3.121,0.926-3.843,2.39l-7.359,14.908l-16.452,2.39
		c-1.614,0.234-2.956,1.365-3.46,2.917c-0.504,1.551-0.083,3.255,1.084,4.393l11.906,11.607l-2.81,16.386
		c-0.275,1.607,0.386,3.232,1.707,4.191c1.319,0.96,3.068,1.086,4.512,0.327l14.715-7.737l14.715,7.737
		c0.627,0.33,1.312,0.493,1.994,0.493c0.889,0,1.773-0.276,2.52-0.819c1.319-0.958,1.98-2.583,1.705-4.191l-2.81-16.386
		l11.906-11.607c1.167-1.138,1.588-2.842,1.084-4.393c-0.504-1.552-1.846-2.683-3.46-2.917L207.596,181.525z"/>
</g>
</svg>