<?xml version="1.0" encoding="utf-8"?>

<!DOCTYPE svg PUBLIC "-//W3C//DTD SVG 1.1//EN" "http://www.w3.org/Graphics/SVG/1.1/DTD/svg11.dtd">
<!-- Uploaded to: SVG Repo, www.svgrepo.com, Generator: SVG Repo Mixer Tools -->
<svg height="800px" width="800px" version="1.1" id="_x32_" xmlns="http://www.w3.org/2000/svg" xmlns:xlink="http://www.w3.org/1999/xlink" 
	 viewBox="0 0 512 512"  xml:space="preserve">
<style type="text/css">
	.st0{fill:#000000;}
</style>
<g>
	<path class="st0" d="M386.386,313.5c-12.187-27.904-21.226-60.357-24.932-95.871c0.347-17.457-2.033-35.289-7.086-52.89
		c-9.623-33.542-28.849-66.349-57.256-94.762c-18.722-18.716-39.213-34.134-60.683-45.729c-16.111-8.692-32.774-15.234-49.66-19.328
		c-25.306-6.142-51.196-6.747-75.904-0.612C86.164,10.402,62.811,23.344,43.102,43.1c-17.559,17.526-29.746,37.907-36.5,59.582
		c-5.08,16.247-7.141,33.18-6.481,50.155c0.992,25.49,8.018,51.067,19.96,75.489c11.956,24.422,28.842,47.722,49.897,68.784
		c37.881,37.867,83.582,59.44,128.399,63.648c7.352,0.688,14.676,0.864,21.94,0.599c37.547,2.53,68.946,11.405,95.422,23.633
		c15.839,7.324,29.923,15.88,42.416,25.054l67.172-33.229C411.039,360.229,397.404,338.759,386.386,313.5z M250.989,315.65
		c-22.518,7.494-48.585,7.8-75.19,0.163c-26.578-7.616-53.576-23.177-77.461-47.062c-16.152-16.144-29.21-33.609-38.799-51.38
		c-7.195-13.323-12.432-26.816-15.642-40.05c-4.808-19.872-5.06-39.07-0.66-56.807c4.427-17.744,13.397-34.188,28.223-49.054
		c13.207-13.187,27.686-21.715,43.192-26.578c11.629-3.638,23.884-5.175,36.636-4.686c19.11,0.728,39.35,6.087,59.412,15.907
		c20.05,9.807,39.88,24.062,58.052,42.233c31.862,31.848,48.864,69.219,52.08,103.774c1.619,17.288-0.184,33.854-5.176,48.877
		c-5.012,15.03-13.159,28.55-24.632,40.03C279.532,302.49,266.019,310.644,250.989,315.65z M332.571,348.593
		c-10.65-4.93-21.708-9.079-33.344-12.521c7.134-4.876,13.894-10.425,20.15-16.696c6.984-6.971,13.058-14.581,18.314-22.633
		c3.346,11.275,7.297,22.177,11.936,32.807c6.345,14.506,13.458,28.019,21.17,40.424
		C359.163,362.248,346.452,355.012,332.571,348.593z"/>
	<path class="st0" d="M438.821,391.022l-64.526,31.917c3.686,3.203,7.208,6.434,10.562,9.691c1.02,0.992,2.04,1.999,3.06,3.02
		c1.591,1.591,3.19,3.223,4.774,4.876l65.124-32.209C451.416,402.815,444.928,396.96,438.821,391.022z"/>
	<path class="st0" d="M508.495,451.693l-75.231,37.214c1.136,1.51,2.17,2.904,3.068,4.114c1.4,1.898,2.489,3.4,3.223,4.414
		c0.368,0.51,0.639,0.898,0.816,1.15l0.198,0.272l0.04,0.062l0.007,0.007l0.074,0.102l0.075,0.102
		c0.972,1.346,2.047,2.605,3.203,3.761c5.183,5.182,12.072,8.406,19.485,9.011l0.074,0.006c9.039,0.7,17.968-2.57,24.428-9.018
		l14.935-14.934c6.447-6.447,9.725-15.39,9.011-24.449v-0.014C511.569,459.316,510.379,455.324,508.495,451.693z"/>
	<path class="st0" d="M476.986,424.081c-1.102-0.863-2.244-1.781-3.387-2.693l-67.797,33.534
		c5.692,6.523,11.044,12.99,15.758,18.893l73.197-36.207C490.867,434.759,484.535,430.039,476.986,424.081z"/>
	<path class="st0" d="M185.858,431.739c-16.996,16.07-17.757,42.886-1.694,59.888c16.07,17.009,42.886,17.764,59.888,1.694
		c17.009-16.07,17.764-42.879,1.694-59.888C229.682,416.431,202.866,415.676,185.858,431.739z"/>
</g>
</svg>